<?xml version="1.0" encoding="UTF-8"?>
<svg width="472px" height="104px" viewBox="0 0 472 104" version="1.1" xmlns="http://www.w3.org/2000/svg" xmlns:xlink="http://www.w3.org/1999/xlink">
    <!-- Generator: Sketch 50.2 (55047) - http://www.bohemiancoding.com/sketch -->
    <title>Logo</title>
    <desc>Created with Sketch.</desc>
    <defs></defs>
    <g id="Page-1" stroke="none" stroke-width="1" fill="none" fill-rule="evenodd">
        <g id="Desktop-HD" transform="translate(-98.000000, -167.000000)" fill="#54D4BE">
            <g id="Logo" transform="translate(98.000000, 167.000000)">
                <path d="M45.9936416,102.805504 L31.5939975,102.805504 L31.5939975,81.1879024 L14.9455425,81.1879024 L14.9455425,102.805504 L0.545898438,102.805504 L0.545898438,49.7770919 L14.9455425,49.7770919 L14.9455425,69.4360518 L31.5939975,69.4360518 L31.5939975,49.7770919 L45.9936416,49.7770919 L45.9936416,102.805504 Z M76.4614023,103.530927 C69.6182123,103.530927 64.3045429,101.711343 60.5202347,98.0721198 C56.7359264,94.4328968 54.8438007,89.2522203 54.8438007,82.5299347 C54.8438007,75.5900212 56.5968884,70.2642615 60.1031165,66.5524959 C63.6093446,62.8407303 68.6147124,60.9848753 75.11937,60.9848753 C81.3096762,60.9848753 86.0913741,62.5989251 89.4646074,65.827073 C92.8378406,69.0552209 94.5244319,73.703926 94.5244319,79.7733278 L94.5244319,86.0845068 L69.1709024,86.0845068 C69.267626,88.3816907 70.1078991,90.1831395 71.6917469,91.4889072 C73.2755948,92.7946749 75.4337063,93.447549 78.1661461,93.447549 C80.6567771,93.447549 82.9478814,93.2117889 85.0395278,92.7402617 C87.1311743,92.2687344 89.3980981,91.4647321 91.8403673,90.3282306 L91.8403673,100.520422 C89.615726,101.656924 87.3185766,102.44279 84.94885,102.878046 C82.5791234,103.313302 79.7500025,103.530927 76.4614023,103.530927 Z M75.627166,70.6329995 C73.9586851,70.6329995 72.56226,71.1589259 71.4378489,72.2107943 C70.3134379,73.2626627 69.6545187,74.9129833 69.4610716,77.1618054 L81.6481759,77.1618054 C81.5998141,75.178973 81.037617,73.5951489 79.9615677,72.4102856 C78.8855184,71.2254223 77.4407323,70.6329995 75.627166,70.6329995 Z M129.34473,102.805504 L126.624394,97.3648325 L126.334225,97.3648325 C124.423935,99.7345591 122.477403,101.354654 120.494571,102.225166 C118.511738,103.095678 115.948603,103.530927 112.805088,103.530927 C108.936147,103.530927 105.889401,102.370262 103.66476,100.048897 C101.440119,97.7275323 100.327815,94.463162 100.327815,90.2556883 C100.327815,85.8789484 101.851188,82.6206233 104.897979,80.4806151 C107.94477,78.3406069 112.357715,77.137626 118.136947,76.8716363 L124.992193,76.6540094 L124.992193,76.0736711 C124.992193,72.6883474 123.323737,70.995711 119.986775,70.995711 C116.988345,70.995711 113.179913,72.0112928 108.561365,74.0424871 L104.462725,64.684532 C109.25054,62.2180819 115.29567,60.9848753 122.598297,60.9848753 C127.86973,60.9848753 131.950193,62.2906234 134.839808,64.9021588 C137.729424,67.5136942 139.17421,71.1649529 139.17421,75.8560442 L139.17421,102.805504 L129.34473,102.805504 Z M118.826098,93.5200913 C120.542941,93.5200913 122.011908,92.9760295 123.233042,91.8878898 C124.454177,90.79975 125.064735,89.3851896 125.064735,87.644166 L125.064735,84.4523053 L121.800332,84.5973899 C117.133422,84.7666561 114.800001,86.483473 114.800001,89.7478923 C114.800001,92.2627042 116.14202,93.5200913 118.826098,93.5200913 Z M163.004351,102.805504 L148.822334,102.805504 L148.822334,46.3676044 L163.004351,46.3676044 L163.004351,102.805504 Z M192.964316,92.3231435 C194.874606,92.3231435 197.159665,91.8516234 199.819562,90.9085689 L199.819562,101.245845 C197.909273,102.067995 196.089688,102.654373 194.360755,103.004995 C192.631822,103.355618 190.606703,103.530927 188.285339,103.530927 C183.521705,103.530927 180.088071,102.364217 177.984334,100.030762 C175.880597,97.6973063 174.828744,94.1125441 174.828744,89.2763674 L174.828744,72.3377433 L169.859598,72.3377433 L169.859598,66.5706314 L176.170777,62.1092808 L179.834162,53.4767485 L189.119575,53.4767485 L189.119575,61.7102982 L199.202953,61.7102982 L199.202953,72.3377433 L189.119575,72.3377433 L189.119575,88.3333177 C189.119575,90.9932149 190.401142,92.3231435 192.964316,92.3231435 Z M232.862574,102.805504 L232.862574,80.3899372 C232.862574,74.8766958 231.230389,72.1201164 227.96597,72.1201164 C225.644605,72.1201164 223.933833,73.0933824 222.833603,75.0399435 C221.733373,76.9865046 221.183266,80.2206493 221.183266,84.7424745 L221.183266,102.805504 L207.001249,102.805504 L207.001249,46.3676044 L221.183266,46.3676044 L221.183266,54.3835271 C221.183266,58.0106596 220.989822,62.1455287 220.602928,66.7882583 L221.255808,66.7882583 C222.609938,64.6603406 224.217942,63.1611483 226.07987,62.2906365 C227.941798,61.4201247 230.105955,60.9848753 232.572405,60.9848753 C237.166773,60.9848753 240.739445,62.3087588 243.290528,64.9565655 C245.841611,67.6043723 247.117134,71.3100371 247.117134,76.0736711 L247.117134,102.805504 L232.862574,102.805504 Z M271.708969,102.805504 L257.599494,102.805504 L257.599494,49.7770919 L288.937763,49.7770919 L288.937763,61.2750444 L271.708969,61.2750444 L271.708969,71.3946936 L287.59573,71.3946936 L287.59573,82.8926461 L271.708969,82.8926461 L271.708969,102.805504 Z M316.648916,103.530927 C309.805726,103.530927 304.492057,101.711343 300.707749,98.0721198 C296.92344,94.4328968 295.031315,89.2522203 295.031315,82.5299347 C295.031315,75.5900212 296.784402,70.2642615 300.290631,66.5524959 C303.796859,62.8407303 308.802226,60.9848753 315.306884,60.9848753 C321.49719,60.9848753 326.278888,62.5989251 329.652121,65.827073 C333.025355,69.0552209 334.711946,73.703926 334.711946,79.7733278 L334.711946,86.0845068 L309.358416,86.0845068 C309.45514,88.3816907 310.295413,90.1831395 311.879261,91.4889072 C313.463109,92.7946749 315.62122,93.447549 318.35366,93.447549 C320.844291,93.447549 323.135395,93.2117889 325.227042,92.7402617 C327.318688,92.2687344 329.585612,91.4647321 332.027881,90.3282306 L332.027881,100.520422 C329.80324,101.656924 327.506091,102.44279 325.136364,102.878046 C322.766637,103.313302 319.937517,103.530927 316.648916,103.530927 Z M315.81468,70.6329995 C314.146199,70.6329995 312.749774,71.1589259 311.625363,72.2107943 C310.500952,73.2626627 309.842033,74.9129833 309.648586,77.1618054 L321.83569,77.1618054 C321.787328,75.178973 321.225131,73.5951489 320.149082,72.4102856 C319.073032,71.2254223 317.628246,70.6329995 315.81468,70.6329995 Z M362.568184,103.530927 C355.724994,103.530927 350.411325,101.711343 346.627017,98.0721198 C342.842708,94.4328968 340.950583,89.2522203 340.950583,82.5299347 C340.950583,75.5900212 342.70367,70.2642615 346.209899,66.5524959 C349.716127,62.8407303 354.721494,60.9848753 361.226152,60.9848753 C367.416458,60.9848753 372.198156,62.5989251 375.571389,65.827073 C378.944623,69.0552209 380.631214,73.703926 380.631214,79.7733278 L380.631214,86.0845068 L355.277684,86.0845068 C355.374408,88.3816907 356.214681,90.1831395 357.798529,91.4889072 C359.382377,92.7946749 361.540488,93.447549 364.272928,93.447549 C366.763559,93.447549 369.054663,93.2117889 371.14631,92.7402617 C373.237956,92.2687344 375.50488,91.4647321 377.947149,90.3282306 L377.947149,100.520422 C375.722508,101.656924 373.425359,102.44279 371.055632,102.878046 C368.685905,103.313302 365.856785,103.530927 362.568184,103.530927 Z M361.733948,70.6329995 C360.065467,70.6329995 358.669042,71.1589259 357.544631,72.2107943 C356.42022,73.2626627 355.761301,74.9129833 355.567854,77.1618054 L367.754958,77.1618054 C367.706596,75.178973 367.144399,73.5951489 366.06835,72.4102856 C364.9923,71.2254223 363.547514,70.6329995 361.733948,70.6329995 Z M401.414579,103.530927 C398.488692,103.530927 395.931602,102.696699 393.743232,101.028218 C391.554863,99.3597371 389.862226,96.9054142 388.665272,93.6651758 C387.468319,90.4249375 386.869851,86.640686 386.869851,82.3123078 C386.869851,75.638384 388.21187,70.4153915 390.895948,66.6431737 C393.580026,62.8709559 397.267555,60.9848753 401.958647,60.9848753 C404.25583,60.9848753 406.268859,61.4443052 407.997792,62.3631788 C409.726725,63.2820523 411.304504,64.8296057 412.731176,67.0058852 L413.021345,67.0058852 C412.561909,63.7898277 412.332194,60.5738184 412.332194,57.3577609 L412.332194,46.3676044 L426.623024,46.3676044 L426.623024,102.805504 L415.923037,102.805504 L412.876261,97.6187305 L412.332194,97.6187305 C409.889924,101.560214 406.250756,103.530927 401.414579,103.530927 Z M407.217962,92.3231435 C409.490965,92.3231435 411.092925,91.6098182 412.023889,90.183146 C412.954853,88.7564739 413.456599,86.5560465 413.529141,83.5817979 L413.529141,82.4573924 C413.529141,78.8302599 413.00926,76.2489893 411.969482,74.7135032 C410.929704,73.1780171 409.297519,72.4102856 407.072878,72.4102856 C405.21095,72.4102856 403.766164,73.2868295 402.738476,75.0399435 C401.710789,76.7930576 401.196952,79.2896963 401.196952,82.5299347 C401.196952,85.7218113 401.716834,88.1519536 402.756612,89.8204346 C403.79639,91.4889155 405.283492,92.3231435 407.217962,92.3231435 Z" id="HealthFeed"></path>
                <polygon id="+" points="434.351699 37.5824552 412.502762 37.5824552 412.502762 21.8418238 434.351699 21.8418238 434.351699 0.286556022 450.151064 0.286556022 450.151064 21.8418238 472 21.8418238 472 37.5824552 450.151064 37.5824552 450.151064 58.7853208 434.351699 58.7853208"></polygon>
            </g>
        </g>
    </g>
</svg>